<svg width="19.000000" height="17.000000" viewBox="0 0 19 17" fill="none" xmlns="http://www.w3.org/2000/svg" xmlns:xlink="http://www.w3.org/1999/xlink">
	<desc>
			Created with Pixso.
	</desc>
	<defs/>
	<path id="path" d="M11.33 10.13C9.83 11.51 9.73 13.23 9.6 17C13.52 17 16.23 16.98 17.62 15.77C18.98 14.52 19 11.98 19 8.59C14.79 8.71 12.87 8.8 11.33 10.13ZM0 8.59C0 11.98 0.01 14.52 1.37 15.77C2.76 16.98 5.47 17 9.39 17C9.26 13.23 9.16 11.51 7.66 10.13C6.12 8.8 4.2 8.7 0 8.59ZM9.39 0C5.48 0 2.76 0.01 1.37 1.22C0.01 2.47 0 5.01 0 8.4C4.2 8.28 6.12 8.19 7.66 6.86C9.16 5.48 9.26 3.76 9.39 0ZM11.33 6.86C9.83 5.48 9.73 3.76 9.6 0C13.52 0 16.23 0.01 17.62 1.22C18.98 2.47 19 5.01 19 8.4C14.79 8.28 12.87 8.19 11.33 6.86Z" fill="#000000" fill-opacity="1.000000" fill-rule="nonzero"/>
</svg>
