<svg width="24.000000" height="13.000000" viewBox="0 0 24 13" fill="none" xmlns="http://www.w3.org/2000/svg" xmlns:xlink="http://www.w3.org/1999/xlink">
	<desc>
			Created with Pixso.
	</desc>
	<defs>
		<clipPath id="clip2_3">
			<rect id="vk" width="24.000000" height="13.000000" fill="white" fill-opacity="0"/>
		</clipPath>
	</defs>
	<g clip-path="url(#clip2_3)">
		<path id="path" d="M23.45 0.88C23.61 0.37 23.45 0 22.65 0L20.03 0C19.36 0 19.05 0.32 18.88 0.67C18.88 0.67 17.55 3.64 15.66 5.57C15.04 6.13 14.77 6.3 14.43 6.3C14.27 6.3 14.01 6.13 14.01 5.62L14.01 0.88C14.01 0.27 13.83 0 13.27 0L9.15 0C8.73 0 8.48 0.28 8.48 0.55C8.48 1.12 9.42 1.26 9.52 2.88L9.52 6.41C9.52 7.18 9.37 7.32 9.03 7.32C8.14 7.32 5.98 4.34 4.69 0.93C4.45 0.26 4.19 0 3.52 0L0.89 0C0.14 0 0 0.32 0 0.67C0 1.31 0.89 4.45 4.14 8.61C6.31 11.45 9.37 13 12.15 13C13.82 13 14.02 12.65 14.02 12.06L14.02 9.92C14.02 9.23 14.18 9.1 14.71 9.1C15.1 9.1 15.77 9.27 17.33 10.64C19.11 12.27 19.4 13 20.4 13L23.03 13C23.78 13 24.15 12.65 23.94 11.98C23.7 11.31 22.85 10.33 21.72 9.17C21.11 8.51 20.19 7.8 19.91 7.45C19.52 6.99 19.63 6.79 19.91 6.38C19.91 6.38 23.11 2.27 23.45 0.88Z" fill="#000000" fill-opacity="1.000000" fill-rule="evenodd"/>
	</g>
</svg>
